<?xml version="1.0" encoding="UTF-8"?>
<svg id="Layer_1" data-name="Layer 1" xmlns="http://www.w3.org/2000/svg" xmlns:xlink="http://www.w3.org/1999/xlink" viewBox="0 0 801.93 587.71">
  <defs>
    <style>
      .cls-1 {
        fill: url(#linear-gradient);
      }

      .cls-1, .cls-2, .cls-3, .cls-4, .cls-5, .cls-6, .cls-7, .cls-8, .cls-9, .cls-10, .cls-11, .cls-12, .cls-13, .cls-14, .cls-15, .cls-16, .cls-17, .cls-18, .cls-19 {
        stroke-width: 0px;
      }

      .cls-2 {
        fill: url(#radial-gradient);
      }

      .cls-3 {
        fill: #a0b5bb;
      }

      .cls-4 {
        fill: url(#radial-gradient-2);
      }

      .cls-5 {
        fill: url(#radial-gradient-3);
      }

      .cls-6 {
        fill: url(#radial-gradient-4);
      }

      .cls-7 {
        fill: url(#radial-gradient-6);
      }

      .cls-8 {
        fill: url(#radial-gradient-9);
      }

      .cls-9 {
        fill: url(#radial-gradient-8);
      }

      .cls-10 {
        fill: url(#radial-gradient-5);
      }

      .cls-11 {
        fill: url(#radial-gradient-7);
      }

      .cls-12 {
        fill: url(#linear-gradient-4);
      }

      .cls-13 {
        fill: url(#linear-gradient-2);
      }

      .cls-14 {
        fill: url(#linear-gradient-3);
      }

      .cls-15 {
        fill: url(#linear-gradient-8);
      }

      .cls-16 {
        fill: url(#linear-gradient-9);
      }

      .cls-17 {
        fill: url(#linear-gradient-7);
      }

      .cls-18 {
        fill: url(#linear-gradient-5);
      }

      .cls-19 {
        fill: url(#linear-gradient-6);
      }
    </style>
    <linearGradient id="linear-gradient" x1="787.81" y1="445.06" x2="7.67" y2="381.21" gradientUnits="userSpaceOnUse">
      <stop offset="0" stop-color="#f7901e"/>
      <stop offset=".99" stop-color="#b965a8"/>
    </linearGradient>
    <linearGradient id="linear-gradient-2" x1="789.85" y1="420.2" x2="9.7" y2="356.36" xlink:href="#linear-gradient"/>
    <linearGradient id="linear-gradient-3" x1="790.58" y1="411.17" x2="10.44" y2="347.32" xlink:href="#linear-gradient"/>
    <linearGradient id="linear-gradient-4" x1="792.38" y1="389.29" x2="12.23" y2="325.44" xlink:href="#linear-gradient"/>
    <linearGradient id="linear-gradient-5" x1="790.46" y1="412.75" x2="10.31" y2="348.9" xlink:href="#linear-gradient"/>
    <linearGradient id="linear-gradient-6" x1="792.5" y1="387.75" x2="12.36" y2="323.9" xlink:href="#linear-gradient"/>
    <linearGradient id="linear-gradient-7" x1="794.34" y1="365.33" x2="14.19" y2="301.49" xlink:href="#linear-gradient"/>
    <linearGradient id="linear-gradient-8" x1="793.37" y1="377.1" x2="13.23" y2="313.26" xlink:href="#linear-gradient"/>
    <linearGradient id="linear-gradient-9" x1="793.97" y1="369.87" x2="13.82" y2="306.02" xlink:href="#linear-gradient"/>
    <radialGradient id="radial-gradient" cx="398.06" cy="112.15" fx="398.06" fy="112.15" r="139.72" gradientUnits="userSpaceOnUse">
      <stop offset="0" stop-color="#f68c1f"/>
      <stop offset=".99" stop-color="#ba62a7"/>
    </radialGradient>
    <radialGradient id="radial-gradient-2" cx="398.06" cy="112.15" fx="398.06" fy="112.15" r="139.72" xlink:href="#radial-gradient"/>
    <radialGradient id="radial-gradient-3" cx="398.06" fx="398.06" r="139.72" xlink:href="#radial-gradient"/>
    <radialGradient id="radial-gradient-4" cx="398.06" fx="398.06" r="139.72" xlink:href="#radial-gradient"/>
    <radialGradient id="radial-gradient-5" cx="398.06" cy="112.15" fx="398.06" fy="112.15" r="139.72" xlink:href="#radial-gradient"/>
    <radialGradient id="radial-gradient-6" cx="398.06" cy="112.15" fx="398.06" fy="112.15" r="139.72" xlink:href="#radial-gradient"/>
    <radialGradient id="radial-gradient-7" cx="398.06" fx="398.06" r="139.72" xlink:href="#radial-gradient"/>
    <radialGradient id="radial-gradient-8" cx="398.06" cy="112.15" fx="398.06" fy="112.15" r="139.72" xlink:href="#radial-gradient"/>
    <radialGradient id="radial-gradient-9" cx="398.06" cy="112.15" fx="398.06" fy="112.15" r="139.72" xlink:href="#radial-gradient"/>
  </defs>
  <g>
    <path class="cls-1" d="M45.89,321.21c7.73,0,14.66,1.96,20.79,5.88,6.13,3.92,10.99,9.31,14.58,16.15,3.59,6.85,5.38,14.8,5.38,23.85s-1.8,17.04-5.38,23.94c-3.59,6.9-8.39,12.32-14.41,16.23-6.02,3.92-12.78,5.88-20.29,5.88-4.42,0-8.56-.72-12.42-2.15-3.87-1.43-7.26-3.26-10.19-5.47-2.93-2.21-5.19-4.44-6.79-6.71-1.6-2.26-2.4-4.17-2.4-5.72l5.14-2.15v43.57c0,2.87-.94,5.27-2.82,7.21-1.88,1.93-4.25,2.9-7.12,2.9s-5.25-.94-7.12-2.82-2.82-4.31-2.82-7.29v-101.55c0-2.87.94-5.27,2.82-7.21,1.88-1.93,4.25-2.9,7.12-2.9s5.24.97,7.12,2.9c1.88,1.93,2.82,4.34,2.82,7.21v8.12l-2.82-1.49c0-1.43.77-3.17,2.32-5.22,1.55-2.04,3.64-4.08,6.3-6.13,2.65-2.04,5.72-3.73,9.19-5.05s7.15-1.99,11.02-1.99ZM43.4,339.43c-4.86,0-9.11,1.22-12.76,3.64-3.64,2.43-6.49,5.72-8.53,9.86-2.04,4.14-3.06,8.86-3.06,14.16s1.02,9.91,3.06,14.16c2.04,4.25,4.89,7.59,8.53,10.02,3.64,2.43,7.89,3.64,12.76,3.64s9.08-1.21,12.67-3.64c3.59-2.43,6.4-5.77,8.45-10.02,2.04-4.25,3.06-8.97,3.06-14.16s-1.02-10.02-3.06-14.16c-2.04-4.14-4.86-7.43-8.45-9.86-3.59-2.43-7.81-3.64-12.67-3.64Z"/>
    <path class="cls-13" d="M144.12,413.15c-9.39,0-17.53-1.96-24.43-5.88-6.9-3.92-12.2-9.25-15.9-15.99-3.7-6.74-5.55-14.36-5.55-22.86,0-9.94,2.01-18.41,6.05-25.43,4.03-7.01,9.3-12.4,15.82-16.15,6.51-3.75,13.42-5.63,20.71-5.63,5.63,0,10.96,1.16,15.99,3.48,5.02,2.32,9.47,5.5,13.34,9.53,3.86,4.03,6.93,8.7,9.19,14,2.26,5.3,3.4,10.93,3.4,16.9-.11,2.65-1.16,4.8-3.15,6.46-1.99,1.66-4.31,2.48-6.96,2.48h-63.28l-4.97-16.57h60.8l-3.64,3.31v-4.47c-.22-3.2-1.35-6.07-3.4-8.61-2.04-2.54-4.58-4.56-7.62-6.05-3.04-1.49-6.27-2.24-9.69-2.24s-6.41.44-9.28,1.33c-2.87.89-5.36,2.38-7.45,4.47-2.1,2.1-3.76,4.92-4.97,8.45-1.22,3.54-1.82,8.01-1.82,13.42,0,5.96,1.24,11.02,3.73,15.16,2.48,4.14,5.69,7.29,9.61,9.44,3.92,2.15,8.09,3.23,12.51,3.23,4.08,0,7.34-.33,9.77-.99,2.43-.66,4.39-1.46,5.88-2.4,1.49-.94,2.84-1.74,4.06-2.4,1.99-.99,3.86-1.49,5.63-1.49,2.43,0,4.44.83,6.05,2.48,1.6,1.66,2.4,3.59,2.4,5.8,0,2.98-1.55,5.69-4.64,8.12-2.87,2.43-6.9,4.56-12.09,6.38-5.19,1.82-10.55,2.73-16.07,2.73Z"/>
    <path class="cls-14" d="M271.67,321.21c2.87,0,5.24.94,7.12,2.82,1.88,1.88,2.82,4.31,2.82,7.29v70.07c0,2.87-.94,5.28-2.82,7.21-1.88,1.93-4.25,2.9-7.12,2.9s-5.25-.97-7.12-2.9c-1.88-1.93-2.82-4.33-2.82-7.21v-8.12l3.64,1.49c0,1.44-.77,3.18-2.32,5.22-1.55,2.04-3.64,4.06-6.3,6.05s-5.77,3.67-9.36,5.05c-3.59,1.38-7.48,2.07-11.68,2.07-7.62,0-14.52-1.96-20.71-5.88-6.19-3.92-11.07-9.33-14.66-16.23-3.59-6.9-5.38-14.83-5.38-23.77s1.79-17.03,5.38-23.94c3.59-6.9,8.42-12.31,14.5-16.23,6.07-3.92,12.81-5.88,20.21-5.88,4.75,0,9.11.72,13.09,2.15,3.98,1.44,7.43,3.26,10.35,5.47,2.92,2.21,5.19,4.45,6.79,6.71,1.6,2.26,2.4,4.17,2.4,5.72l-5.96,2.15v-12.09c0-2.87.94-5.27,2.82-7.21,1.88-1.93,4.25-2.9,7.12-2.9ZM238.21,394.93c4.86,0,9.11-1.21,12.76-3.64,3.64-2.43,6.49-5.74,8.53-9.94,2.04-4.2,3.06-8.89,3.06-14.08s-1.02-10.05-3.06-14.25c-2.04-4.2-4.89-7.51-8.53-9.94-3.64-2.43-7.9-3.64-12.76-3.64s-8.95,1.22-12.59,3.64c-3.64,2.43-6.49,5.74-8.53,9.94-2.04,4.2-3.06,8.95-3.06,14.25s1.02,9.89,3.06,14.08c2.04,4.2,4.89,7.51,8.53,9.94,3.64,2.43,7.84,3.64,12.59,3.64Z"/>
    <path class="cls-12" d="M314.74,411.5c-2.87,0-5.25-.97-7.12-2.9-1.88-1.93-2.82-4.33-2.82-7.21v-102.38c0-2.87.94-5.27,2.82-7.21,1.88-1.93,4.25-2.9,7.12-2.9s5.24.97,7.12,2.9c1.88,1.93,2.82,4.34,2.82,7.21v102.38c0,2.87-.94,5.28-2.82,7.21-1.88,1.93-4.25,2.9-7.12,2.9ZM367.42,322.87c2.54,0,4.75,1.05,6.63,3.15,1.88,2.1,2.82,4.14,2.82,6.13,0,2.65-1.33,5.14-3.98,7.45l-49.86,45.89-.83-22.86,37.94-36.61c2.1-2.1,4.53-3.15,7.29-3.15ZM369.9,411.33c-2.87,0-5.3-1.1-7.29-3.31l-30.65-32.47,15.07-13.92,29.82,32.47c2.1,2.21,3.15,4.7,3.15,7.45s-1.13,5.22-3.4,7.04c-2.26,1.82-4.5,2.73-6.71,2.73Z"/>
    <path class="cls-18" d="M443.29,321.21c7.73,0,14.66,1.96,20.79,5.88,6.13,3.92,10.99,9.31,14.58,16.15,3.59,6.85,5.38,14.8,5.38,23.85s-1.8,17.04-5.38,23.94c-3.59,6.9-8.39,12.32-14.41,16.23-6.02,3.92-12.78,5.88-20.29,5.88-4.42,0-8.56-.72-12.42-2.15-3.87-1.43-7.26-3.26-10.19-5.47-2.93-2.21-5.19-4.44-6.79-6.71-1.6-2.26-2.4-4.17-2.4-5.72l5.14-2.15v43.57c0,2.87-.94,5.27-2.82,7.21-1.88,1.93-4.25,2.9-7.12,2.9s-5.25-.94-7.12-2.82-2.82-4.31-2.82-7.29v-101.55c0-2.87.94-5.27,2.82-7.21,1.88-1.93,4.25-2.9,7.12-2.9s5.24.97,7.12,2.9c1.88,1.93,2.82,4.34,2.82,7.21v8.12l-2.82-1.49c0-1.43.77-3.17,2.32-5.22,1.55-2.04,3.64-4.08,6.3-6.13,2.65-2.04,5.72-3.73,9.19-5.05s7.15-1.99,11.02-1.99ZM440.8,339.43c-4.86,0-9.11,1.22-12.76,3.64-3.64,2.43-6.49,5.72-8.53,9.86-2.04,4.14-3.06,8.86-3.06,14.16s1.02,9.91,3.06,14.16c2.04,4.25,4.89,7.59,8.53,10.02,3.64,2.43,7.89,3.64,12.76,3.64s9.08-1.21,12.67-3.64c3.59-2.43,6.4-5.77,8.45-10.02,2.04-4.25,3.06-8.97,3.06-14.16s-1.02-10.02-3.06-14.16c-2.04-4.14-4.86-7.43-8.45-9.86-3.59-2.43-7.81-3.64-12.67-3.64Z"/>
    <path class="cls-19" d="M566.37,322.87c2.87,0,5.24.97,7.12,2.9,1.88,1.93,2.82,4.34,2.82,7.21v42.08c0,11.71-3.26,20.98-9.77,27.83-6.52,6.85-15.9,10.27-28.16,10.27s-21.62-3.42-28.08-10.27c-6.46-6.85-9.69-16.12-9.69-27.83v-42.08c0-2.87.94-5.27,2.82-7.21,1.88-1.93,4.25-2.9,7.12-2.9s5.24.97,7.12,2.9c1.88,1.93,2.82,4.34,2.82,7.21v42.08c0,6.74,1.49,11.74,4.47,14.99,2.98,3.26,7.45,4.89,13.42,4.89s10.6-1.63,13.58-4.89c2.98-3.26,4.47-8.25,4.47-14.99v-42.08c0-2.87.94-5.27,2.82-7.21,1.88-1.93,4.25-2.9,7.12-2.9Z"/>
    <path class="cls-17" d="M619.37,401.39c0,2.87-.97,5.28-2.9,7.21-1.93,1.93-4.34,2.9-7.21,2.9s-5.08-.97-6.96-2.9c-1.88-1.93-2.82-4.33-2.82-7.21v-102.38c0-2.87.97-5.27,2.9-7.21s4.33-2.9,7.21-2.9,5.22.97,7.04,2.9c1.82,1.93,2.73,4.34,2.73,7.21v102.38Z"/>
    <path class="cls-15" d="M637.43,397.75c-1.11-1.55-1.6-3.53-1.49-5.96.11-2.43,1.55-4.53,4.31-6.29,1.77-1.1,3.64-1.57,5.63-1.41,1.99.17,3.92,1.19,5.8,3.06,3.2,3.2,6.57,5.69,10.11,7.45,3.53,1.77,7.95,2.65,13.25,2.65,1.66-.11,3.48-.36,5.47-.75,1.99-.39,3.73-1.27,5.22-2.65,1.49-1.38,2.24-3.5,2.24-6.38,0-2.43-.83-4.36-2.48-5.8-1.66-1.43-3.84-2.65-6.54-3.64-2.71-.99-5.72-1.93-9.03-2.82-3.42-.99-6.93-2.1-10.52-3.31-3.59-1.21-6.87-2.79-9.86-4.72-2.98-1.93-5.41-4.5-7.29-7.7-1.88-3.2-2.82-7.23-2.82-12.09,0-5.52,1.55-10.21,4.64-14.08,3.09-3.86,7.09-6.85,12.01-8.95,4.91-2.1,10.08-3.15,15.49-3.15,3.42,0,7.01.41,10.77,1.24,3.75.83,7.34,2.15,10.77,3.98,3.42,1.82,6.29,4.22,8.61,7.21,1.21,1.66,1.93,3.64,2.15,5.96.22,2.32-.83,4.42-3.15,6.3-1.66,1.33-3.59,1.91-5.8,1.74-2.21-.17-4.03-.91-5.47-2.24-1.88-2.43-4.39-4.36-7.54-5.8-3.15-1.43-6.77-2.15-10.85-2.15-1.66,0-3.45.19-5.38.58-1.93.39-3.62,1.22-5.05,2.48-1.44,1.27-2.15,3.29-2.15,6.05,0,2.54.83,4.56,2.48,6.05,1.66,1.49,3.89,2.71,6.71,3.64,2.82.94,5.82,1.85,9.03,2.73,3.31.89,6.68,1.93,10.11,3.15,3.42,1.22,6.57,2.82,9.44,4.8,2.87,1.99,5.19,4.56,6.96,7.7,1.77,3.15,2.65,7.15,2.65,12.01,0,5.63-1.66,10.44-4.97,14.41-3.31,3.98-7.45,6.99-12.42,9.03-4.97,2.04-10.05,3.06-15.24,3.06-6.52,0-13.03-1.13-19.55-3.4-6.52-2.26-11.93-6.27-16.23-12.01Z"/>
    <path class="cls-16" d="M763.33,413.15c-9.39,0-17.53-1.96-24.43-5.88-6.9-3.92-12.2-9.25-15.9-15.99-3.7-6.74-5.55-14.36-5.55-22.86,0-9.94,2.01-18.41,6.05-25.43,4.03-7.01,9.3-12.4,15.82-16.15,6.51-3.75,13.42-5.63,20.71-5.63,5.63,0,10.96,1.16,15.99,3.48,5.02,2.32,9.47,5.5,13.34,9.53,3.86,4.03,6.93,8.7,9.19,14,2.26,5.3,3.4,10.93,3.4,16.9-.11,2.65-1.16,4.8-3.15,6.46-1.99,1.66-4.31,2.48-6.96,2.48h-63.28l-4.97-16.57h60.8l-3.64,3.31v-4.47c-.22-3.2-1.35-6.07-3.4-8.61-2.04-2.54-4.58-4.56-7.62-6.05-3.04-1.49-6.27-2.24-9.69-2.24s-6.41.44-9.28,1.33c-2.87.89-5.36,2.38-7.45,4.47-2.1,2.1-3.76,4.92-4.97,8.45-1.22,3.54-1.82,8.01-1.82,13.42,0,5.96,1.24,11.02,3.73,15.16,2.48,4.14,5.69,7.29,9.61,9.44,3.92,2.15,8.09,3.23,12.51,3.23,4.08,0,7.34-.33,9.77-.99,2.43-.66,4.39-1.46,5.88-2.4,1.49-.94,2.84-1.74,4.06-2.4,1.99-.99,3.86-1.49,5.63-1.49,2.43,0,4.44.83,6.05,2.48,1.6,1.66,2.4,3.59,2.4,5.8,0,2.98-1.55,5.69-4.64,8.12-2.87,2.43-6.9,4.56-12.09,6.38-5.19,1.82-10.55,2.73-16.07,2.73Z"/>
  </g>
  <g>
    <path class="cls-3" d="M335.62,489.34c6.24,0,11.76,1.54,16.58,4.61,4.81,3.07,8.64,7.29,11.49,12.66,2.84,5.37,4.27,11.53,4.27,18.5s-1.42,13.16-4.27,18.57c-2.84,5.41-6.7,9.68-11.56,12.79-4.86,3.12-10.32,4.68-16.37,4.68-3.21,0-6.26-.48-9.15-1.44-2.89-.96-5.53-2.27-7.91-3.92-2.39-1.65-4.49-3.6-6.33-5.85-1.84-2.25-3.3-4.65-4.4-7.22l2.48-1.93v42.79c0,1.1-.39,2.06-1.17,2.89-.78.83-1.77,1.24-2.96,1.24s-2.2-.41-3.03-1.24c-.83-.83-1.24-1.79-1.24-2.89v-89.7c0-1.19.39-2.2,1.17-3.03.78-.83,1.81-1.24,3.1-1.24,1.19,0,2.18.41,2.96,1.24.78.83,1.17,1.84,1.17,3.03v14.86l-1.93-1.1c.92-2.84,2.27-5.39,4.06-7.64,1.79-2.25,3.87-4.17,6.26-5.78,2.38-1.6,5-2.82,7.84-3.65,2.84-.83,5.82-1.24,8.94-1.24ZM334.93,497.05c-4.95,0-9.31,1.22-13.07,3.65-3.76,2.43-6.72,5.73-8.87,9.91-2.16,4.17-3.23,9.01-3.23,14.51s1.08,10.27,3.23,14.58c2.15,4.31,5.11,7.68,8.87,10.11,3.76,2.43,8.12,3.65,13.07,3.65s9.15-1.21,12.86-3.65c3.71-2.43,6.65-5.8,8.8-10.11,2.15-4.31,3.23-9.17,3.23-14.58s-1.08-10.23-3.23-14.45c-2.16-4.22-5.09-7.54-8.8-9.97-3.71-2.43-8-3.65-12.86-3.65Z"/>
    <path class="cls-3" d="M389.13,560.19c-1.29,0-2.32-.41-3.1-1.24-.78-.83-1.17-1.79-1.17-2.89v-61.63c0-1.1.41-2.06,1.24-2.89.83-.83,1.83-1.24,3.03-1.24s2.18.41,2.96,1.24c.78.83,1.17,1.79,1.17,2.89v20.64l-2.06.41c.28-3.21,1.08-6.4,2.41-9.56,1.33-3.16,3.14-6.07,5.43-8.74,2.29-2.66,5.02-4.82,8.19-6.47s6.72-2.48,10.66-2.48c1.65,0,3.25.34,4.82,1.03,1.56.69,2.34,1.81,2.34,3.37,0,1.38-.37,2.43-1.1,3.16-.73.74-1.61,1.1-2.61,1.1-.83,0-1.72-.23-2.68-.69-.96-.46-2.22-.69-3.78-.69-2.57,0-5.14.76-7.7,2.27-2.57,1.51-4.91,3.56-7.02,6.12-2.11,2.57-3.78,5.43-5.02,8.6-1.24,3.16-1.86,6.35-1.86,9.56v33.98c0,1.1-.41,2.06-1.24,2.89-.83.83-1.79,1.24-2.89,1.24Z"/>
    <path class="cls-3" d="M499.88,524.97c0,6.97-1.54,13.23-4.61,18.78-3.07,5.55-7.22,9.91-12.45,13.07-5.23,3.16-11.14,4.75-17.75,4.75s-12.41-1.58-17.68-4.75c-5.28-3.16-9.45-7.52-12.52-13.07-3.07-5.55-4.61-11.81-4.61-18.78s1.53-13.34,4.61-18.85c3.07-5.5,7.24-9.86,12.52-13.07,5.27-3.21,11.17-4.82,17.68-4.82s12.52,1.61,17.75,4.82c5.23,3.21,9.38,7.57,12.45,13.07,3.07,5.5,4.61,11.79,4.61,18.85ZM491.49,524.97c0-5.59-1.15-10.57-3.44-14.93-2.29-4.36-5.43-7.77-9.42-10.25-3.99-2.48-8.51-3.71-13.55-3.71s-9.56,1.24-13.55,3.71c-3.99,2.48-7.15,5.89-9.49,10.25-2.34,4.36-3.51,9.33-3.51,14.93s1.17,10.55,3.51,14.86c2.34,4.31,5.5,7.73,9.49,10.25,3.99,2.52,8.51,3.78,13.55,3.78s9.56-1.26,13.55-3.78c3.99-2.52,7.13-5.94,9.42-10.25,2.29-4.31,3.44-9.26,3.44-14.86Z"/>
  </g>
  <g>
    <path class="cls-2" d="M353.42,0c-4.16,0-7.57,3.2-7.9,7.28-1.05,3.14-4.02,5.41-7.52,5.41h-.44c-2.95,0-5.52-1.61-6.89-3.99-.96-1.68-2.78-2.69-4.72-2.69h-4.07c-4.37,0-8.26,3.54-8.26,7.91v31.14c0,4.3-3.49,7.79-7.79,7.79s-7.87-3.49-7.87-7.8l-.03-1.45c0-11.61-15.85-11.61-15.85,0v83.22c0,4.53,3.67,8.2,8.2,8.2h.19c4.07,0,7.49-2.98,8.11-7,1.04-6.77,1.23-13.43,5.88-14.74,8.12-.91,20.61-5.38,23.79-15.54.31-1,.58-2.73.8-5.02.84-3.65,4.75-5.12,8.15-5.12s7.14,1.18,8.31,5.13h0c.27,4.14,3.7,7.41,7.91,7.41s7.93-3.55,7.93-7.93v-12.43c0-4.38-3.55-7.93-7.93-7.93-3.46,0-6.4,2.22-7.48,5.32h-.1c-.6,3.79-3.88,6.68-7.83,6.68h-.44c-3.76,0-6.9-2.62-7.72-6.13.19-6.84.28-14.73.3-22.71,1.6-2.02,4.48-2.87,7.06-2.87,3.39,0,7.14,1.18,8.31,5.13h.05c.48,3.92,3.82,6.96,7.87,6.96,4.38,0,7.93-3.55,7.93-7.93v-12.43c0-4.38-3.55-7.93-7.93-7.93-4.03,0-7.36,3.01-7.86,6.91-1.01,3.21-4.01,5.55-7.56,5.55h-.44c-3.41,0-6.31-2.16-7.44-5.18-.04-8.82-.14-17.13-.23-23.55,1.54-2.26,4.59-3.2,7.31-3.2,3.39,0,7.14,1.18,8.31,5.13h.08c.58,3.81,3.86,6.72,7.83,6.72,4.38,0,7.93-3.55,7.93-7.93V7.93c0-4.38-3.55-7.93-7.93-7.93ZM313.62,90.39c0,4.3-3.49,7.79-7.79,7.79s-7.79-3.49-7.79-7.79v-18.38c0-4.3,3.49-7.79,7.79-7.79s7.79,3.49,7.79,7.79v18.38Z"/>
    <rect class="cls-4" x="314.28" y="115.68" width="15.87" height="48.35" rx="7.93" ry="7.93"/>
    <path class="cls-5" d="M480.58,71.84c4.38,0,7.93-3.55,7.93-7.93V14.7c0-4.38-3.55-7.93-7.93-7.93s-7.93,3.55-7.93,7.93v49.21c0,4.38,3.55,7.93,7.93,7.93Z"/>
    <path class="cls-6" d="M511.91,39.31h0c-4.38,0-7.93,3.55-7.93,7.93v71.15c0,4.38,3.55,7.93,7.93,7.93h0c4.38,0,7.93-3.55,7.93-7.93V47.24c0-4.38-3.55-7.93-7.93-7.93Z"/>
    <path class="cls-10" d="M480.58,77.16c-4.38,0-7.93,3.55-7.93,7.93v23.51c-.87,3.44-3.98,5.98-7.69,5.98h-.44c-3.96,0-7.24-2.9-7.83-6.68h-.08V8.13c0-4.49-3.64-8.13-8.13-8.13h0c-4.49,0-8.13,3.64-8.13,8.13v179.47c0,4.49,3.64,8.13,8.13,8.13h0c4.49,0,8.13-3.64,8.13-8.13v-65.65c1.44-2.54,4.68-3.6,7.55-3.6,3.39,0,7.14,1.18,8.31,5.13h.18v32.63c0,4.38,3.55,7.93,7.93,7.93s7.93-3.55,7.93-7.93v-71c0-4.38-3.55-7.93-7.93-7.93Z"/>
    <path class="cls-7" d="M353.42,106.64c-4.38,0-7.93,3.55-7.93,7.93v73.22c0,4.38,3.55,7.93,7.93,7.93s7.93-3.55,7.93-7.93v-73.22c0-4.38-3.55-7.93-7.93-7.93Z"/>
    <path class="cls-11" d="M385.11,13.21c-4.38,0-7.93,3.55-7.93,7.93v32.32c0,4.38,3.55,7.93,7.93,7.93s7.93-3.55,7.93-7.93V21.13c0-4.38-3.55-7.93-7.93-7.93Z"/>
    <path class="cls-9" d="M385.11,73.84c-4.38,0-7.93,3.55-7.93,7.93v137.5c0,4.38,3.55,7.93,7.93,7.93s7.93-3.55,7.93-7.93V81.76c0-4.38-3.55-7.93-7.93-7.93Z"/>
    <path class="cls-8" d="M416.81,13.21h0c-4.38,0-7.93,3.55-7.93,7.93v60.53c0,4.38-3.55,7.92-7.93,7.92s-7.93-3.55-7.93-7.93v31.93c0-4.3,3.48-7.78,7.78-7.78s7.78,3.48,7.78,7.78-3.48,7.78-7.78,7.78-7.78-3.48-7.78-7.78v29.33c0-4.38,3.55-7.92,7.93-7.92s7.92,3.55,7.93,7.92v76.34c0,4.38,3.55,7.93,7.93,7.93h0c4.38,0,7.93-3.55,7.93-7.93V21.13c0-4.38-3.55-7.93-7.93-7.93Z"/>
  </g>
</svg>